<svg id="9209746a-20cb-48af-9092-f5b4f4b23249" data-name="Calque 1" xmlns="http://www.w3.org/2000/svg" width="1583.512" height="485.42634" viewBox="0 0 1583.512 485.42634"><title>lazy-collection</title><path d="M213.30667,1006.02332h47.94791c-22.30144,34.69682-7.89263,70.15519-12.8424,111.57186l53.1503-20.3939c-0.95861,6.97472-2.10922,15.34634-3.51419,25.5687H213.30667v-10.61333c2.55816-.10437,7.3567-0.18486,7.3581-0.31644q0.49927-46.80022.017-93.6038c-0.00636-.56106-4.80991-1.06771-7.37509-1.59975v-10.61333Z" transform="translate(-213.30667 -640.49691)"/><path d="M1134.45963,712.40235c-54.51333-57.57-110.71383-72.33914-162.13325-45.62671,16.37547,0,38.05494-.38616,59.69992.30674,4.656,0.149,9.18739,4.19514,14.984,7.03855-93.06918,4.70927-134.04037,34.03163-143.17967,101.447-7.93636,58.54237,27.75085,112.489,85.706,129.55738,60.16414,17.71892,115.11667-18.21932,162.95173-103.51125-3.2182,21.60647-6.43649,43.213-10.17673,68.324,6.09923-6.50289,10.10879-10.77783,15.54509-16.57388-8.62107,55.90616-71.889,101.80059-139.01513,103.0896-73.85405,1.41823-144.07641-56.5618-158.5699-130.92545-14.63661-75.09775,25.117-147.71072,95.828-175.03723C1022.94821,624.65725,1098.01913,650.1729,1134.45963,712.40235Z" transform="translate(-213.30667 -640.49691)"/><path d="M1780.26643,1093.18821c-2.58-28.03749-5.1601-56.07494-7.88534-85.6919h24.43758c-2.089,37.95393-4.14664,75.34173-6.46442,117.457-47.10881-8.37074-45.30246-58.28386-72.514-79.64255-9.20553,28.3211-6.06441,59.81838,10.20345,76.15539h-39.2808c14.1611-22.58775,13.91753-91.07315-.18656-110.7778,26.57188-9.96526,29.50845-9.09905,43.2663,13.73384,14.03607,23.29424,27.91425,46.68346,41.86158,70.03114Z" transform="translate(-213.30667 -640.49691)"/><path d="M1672.81389,1063.78284c-0.52957,37.28278-24.47694,63.05225-57.67648,62.06466-30.73293-.91415-52.51483-24.97638-52.60747-58.11486-0.10332-36.99978,25.8168-64.27236,60.00195-63.13286C1653.4,1005.6287,1673.307,1029.05974,1672.81389,1063.78284Zm-24.48114,2.06879c0.03352-31.30424-11.73789-50.60876-30.815-50.53528-19.55716.07535-30.73471,18.85439-30.13292,50.62512,0.56276,29.71218,14.23057,50.36224,32.86787,49.65858C1638.37351,1114.91586,1648.29906,1097.33109,1648.33274,1065.85162Z" transform="translate(-213.30667 -640.49691)"/><path d="M967.53389,1065.121c-1.019,36.11936-24.02332,61.00921-56.19507,60.801-31.87927-.20628-54.20681-24.99087-53.63166-59.53352,0.60353-36.248,25.178-62.26831,58.42325-61.86065C948.09633,1004.9197,968.552,1029.03233,967.53389,1065.121Zm-86.31179-.39256c1.566,7.87595.78832,18.34685,5.54521,24.62285,7.735,10.20511,19.091,17.66566,28.91873,26.28462,8.57013-9.77651,21.52068-18.35163,24.614-29.63024a82.11453,82.11453,0,0,0-1.66862-46.3926c-3.50031-9.985-17.55752-22.63378-26.70378-22.47807-9.07662.15454-19.29756,13.83967-26.31515,23.54437C881.48477,1046.38766,882.61767,1055.90008,881.2221,1064.7284Z" transform="translate(-213.30667 -640.49691)"/><path d="M340.60108,1122.4852H311.39653c12.44984-33.28752,24.3915-66.66042,37.65353-99.50008,2.76974-6.85848,10.41491-11.74805,15.8133-17.545,5.49811,5.635,13.24291,10.32835,16.07323,17.08144,8.50274,20.28729,14.61744,41.56125,22.59817,62.08693,4.833,12.42989,11.398,24.18636,17.70483,37.3289h-37.396c-1.4179-8.70775-1.62392-23.94571-4.36553-24.41641-12.57094-2.15855-25.93125-.70916-38.73319,1.24573C339.65867,1098.93262,340.60108,1112.383,340.60108,1122.4852Zm23.85611-87.57935q-2.9741-.01032-5.9482-0.02069l-14.05989,46.14511h34.19422C373.45811,1064.17118,368.95765,1049.53854,364.4572,1034.90585Z" transform="translate(-213.30667 -640.49691)"/><path d="M465.73009,1116.314c19.32161-6.29207,38.64323-12.58418,60.07472-19.56339,0.5794,13.76194.98257,28.49353-25.24563,27.04626-22.43606-1.238-44.9946-.2562-75.83723-0.2562,27.04739-38.84241,49.709-71.38647,72.3706-103.93049q-1.74617-3.37495-3.49234-6.74985l-55.60554,17.08023v-22.46924h93.23285c-25.40681,36.7503-47.54012,68.76561-69.67342,100.78091Q463.64209,1112.28309,465.73009,1116.314Z" transform="translate(-213.30667 -640.49691)"/><path d="M1267.85157,1027.83992c-22.09834-6.13709-36.43264-10.11794-53.93292-14.978v46.82536c11.85514-4.54811,21.38537-8.2043,33.13355-12.71135v31.46667c-10.48969-4.06867-20.17329-7.82465-33.28286-12.90953v51.03l54.83124-16.22454v23.16974h-86.94881c13.18124-39.19258,10.126-76.28475,3.11788-117.83162,20.37936,0,45.18488-.8469,69.81777.83459C1258.68774,1006.79111,1262.03647,1018.08142,1267.85157,1027.83992Z" transform="translate(-213.30667 -640.49691)"/><path d="M565.39471,1007.1095c8.36438,20.33487,15.08516,36.674,21.80595,53.0131q3.764,0.09935,7.52793.19879c4.6288-16.41341,9.25764-32.82686,14.96751-53.07375H636.7796c-12.26361,36.77054-57.95134,66.72844-24.44118,114.46289H560.67109c27.14035-23.51052,21.07986-46.771-28.20511-114.601h32.92873Z" transform="translate(-213.30667 -640.49691)"/><path d="M839.76093,1093.36866c7.21484,16.24928,6.13134,25.21375-10.65471,29.48938-29.52736,7.52108-57.89186.5986-72.25948-19.105-14.29819-19.60821-13.99182-51.33752.69807-72.29418,15.38853-21.95332,46.06749-32.59649,73.12918-25.33039,21.09342,5.66364,13.46278,17.39436,7.19343,30.04555-25.4142-22.99925-40.88018-25.35181-55.84547-9.32246-17.56785,18.81694-14.98929,63.3057,4.65009,80.22908C802.45657,1120.68233,818.05162,1117.23635,839.76093,1093.36866Z" transform="translate(-213.30667 -640.49691)"/><path d="M1111.75844,1118.92942c22.12385-8.88395,36.3894-14.61236,53.77664-21.59429-0.632,6.80451-1.46375,15.75878-2.314,24.9129h-78.71034c9.90053-38.62216,11.80316-75.85292-1.62748-114.84306h35.69506C1116.43505,1042.45394,1114.39639,1075.79158,1111.75844,1118.92942Z" transform="translate(-213.30667 -640.49691)"/><path d="M1377.14367,1094.3673c8.66455,21.51716-1.57323,26.925-18.27786,29.655-31.11415,5.08492-54.96759-2.70418-67.82494-23.71716-12.81775-20.94864-10.45624-52.55414,5.39574-72.21471,16.08664-19.95166,48.08924-30.73767,71.84235-20.86346,6.61673,2.75058,8.924,15.86761,9.39574,27.225-20.57086-17.08128-38.69212-29.57493-60.013-6.45778-16.98828,18.41952-14.05437,61.1506,4.44414,78.21377C1337.49468,1120.40261,1352.09944,1117.625,1377.14367,1094.3673Z" transform="translate(-213.30667 -640.49691)"/><path d="M1417.91891,1121.09436c27.50469-32.223,7.80777-68.66836,16.26317-109.761-16.99946,8.219-27.47408,13.28331-40.58131,19.62048-0.37564-6.40839-.82755-14.11919-1.39679-23.831h97.75016v24.58544c-10.94168-6.17211-20.93735-11.81064-37.36254-21.07593,6.86945,41.557-9.82069,77.46449,13.81931,110.462h-48.492Z" transform="translate(-213.30667 -640.49691)"/><path d="M982.81331,1007.38384h47.11383c-16.16413,18.04438-20.02292,57.82356-10.78006,108.48143,15.9779-6.00421,31.08241-11.6802,47.33376-17.78712,2.85763,14.7307,2.64394,26.81063-20.13612,25.65554-20.09531-1.01893-40.28325-.21324-61.12675-0.21324C997.36494,1095.373,996.08046,1029.5574,982.81331,1007.38384Z" transform="translate(-213.30667 -640.49691)"/><path d="M1510.02086,1006.7882h39.48145c-18.3373,23.31918-18.28774,92.89885-.0668,115.43619h-40.88666c1.92077-19.31327,5.07557-38.41159,5.36537-57.55336C1514.19576,1046.08017,1511.5379,1027.44477,1510.02086,1006.7882Z" transform="translate(-213.30667 -640.49691)"/><path d="M730.949,1056.03814c-22.24159,17.11209-62.875,16.20061-77.701,0h77.701Z" transform="translate(-213.30667 -640.49691)"/></svg>