<?xml version="1.0" encoding="UTF-8" standalone="no"?>
<!DOCTYPE svg PUBLIC "-//W3C//DTD SVG 1.1//EN"
 "http://www.w3.org/Graphics/SVG/1.1/DTD/svg11.dtd">
<!-- Generated by graphviz version 2.44.1 (20200629.0800)
 -->
<!-- Title: G Pages: 1 -->
<svg width="447pt" height="320pt"
 viewBox="0.00 0.00 446.89 320.00" xmlns="http://www.w3.org/2000/svg" xmlns:xlink="http://www.w3.org/1999/xlink">
<g id="graph0" class="graph" transform="scale(1 1) rotate(0) translate(4 316)">
<title>G</title>
<polygon fill="white" stroke="transparent" points="-4,4 -4,-316 442.89,-316 442.89,4 -4,4"/>
<g id="clust1" class="cluster">
<title>cluster_Global</title>
<path fill="none" stroke="gray" d="M20,-8C20,-8 418.89,-8 418.89,-8 424.89,-8 430.89,-14 430.89,-20 430.89,-20 430.89,-292 430.89,-292 430.89,-298 424.89,-304 418.89,-304 418.89,-304 20,-304 20,-304 14,-304 8,-298 8,-292 8,-292 8,-20 8,-20 8,-14 14,-8 20,-8"/>
<text text-anchor="middle" x="219.44" y="-291.2" font-family="Times New Roman,serif" font-size="11.00" fill="gray">Global</text>
</g>
<g id="clust2" class="cluster">
<title>cluster_\LazyCollection</title>
<path fill="none" stroke="gray" d="M230.89,-16C230.89,-16 410.89,-16 410.89,-16 416.89,-16 422.89,-22 422.89,-28 422.89,-28 422.89,-264 422.89,-264 422.89,-270 416.89,-276 410.89,-276 410.89,-276 230.89,-276 230.89,-276 224.89,-276 218.89,-270 218.89,-264 218.89,-264 218.89,-28 218.89,-28 218.89,-22 224.89,-16 230.89,-16"/>
<text text-anchor="middle" x="320.89" y="-263.2" font-family="Times New Roman,serif" font-size="11.00" fill="gray">LazyCollection</text>
</g>
<g id="clust3" class="cluster">
<title>cluster_\LazyCollection\Exceptions</title>
<path fill="none" stroke="gray" d="M238.89,-24C238.89,-24 402.89,-24 402.89,-24 408.89,-24 414.89,-30 414.89,-36 414.89,-36 414.89,-192 414.89,-192 414.89,-198 408.89,-204 402.89,-204 402.89,-204 238.89,-204 238.89,-204 232.89,-204 226.89,-198 226.89,-192 226.89,-192 226.89,-36 226.89,-36 226.89,-30 232.89,-24 238.89,-24"/>
<text text-anchor="middle" x="320.89" y="-191.2" font-family="Times New Roman,serif" font-size="11.00" fill="gray">Exceptions</text>
</g>
<!-- \\LazyCollection\\Exceptions\\InvalidFactoryException -->
<g id="node1" class="node">
<title>\\LazyCollection\\Exceptions\\InvalidFactoryException</title>
<polygon fill="none" stroke="black" points="406.89,-176 234.89,-176 234.89,-140 406.89,-140 406.89,-176"/>
<text text-anchor="middle" x="320.89" y="-155.2" font-family="Courier,monospace" font-size="11.00">InvalidFactoryException</text>
</g>
<!-- Exception -->
<g id="node6" class="node">
<title>Exception</title>
<ellipse fill="none" stroke="black" cx="89.44" cy="-104" rx="47.39" ry="18"/>
<text text-anchor="middle" x="89.44" y="-100.3" font-family="Times New Roman,serif" font-size="14.00" fill="gray">Exception</text>
</g>
<!-- \\LazyCollection\\Exceptions\\InvalidFactoryException&#45;&gt;Exception -->
<g id="edge2" class="edge">
<title>\\LazyCollection\\Exceptions\\InvalidFactoryException&#45;&gt;Exception</title>
<path fill="none" stroke="black" d="M243.17,-139.94C209.11,-131.93 170.01,-122.73 139.9,-115.64"/>
<polygon fill="none" stroke="black" points="140.59,-112.21 130.05,-113.32 138.99,-119.02 140.59,-112.21"/>
</g>
<!-- \\LazyCollection\\Exceptions\\NotFoundException -->
<g id="node2" class="node">
<title>\\LazyCollection\\Exceptions\\NotFoundException</title>
<polygon fill="none" stroke="black" points="386.39,-122 255.39,-122 255.39,-86 386.39,-86 386.39,-122"/>
<text text-anchor="middle" x="320.89" y="-101.2" font-family="Courier,monospace" font-size="11.00">NotFoundException</text>
</g>
<!-- \\LazyCollection\\Exceptions\\NotFoundException&#45;&gt;Exception -->
<g id="edge3" class="edge">
<title>\\LazyCollection\\Exceptions\\NotFoundException&#45;&gt;Exception</title>
<path fill="none" stroke="black" d="M255.36,-104C221.4,-104 180.12,-104 147.35,-104"/>
<polygon fill="none" stroke="black" points="147.03,-100.5 137.03,-104 147.03,-107.5 147.03,-100.5"/>
</g>
<!-- \\LazyCollection\\Exceptions\\InvalidMethodException -->
<g id="node3" class="node">
<title>\\LazyCollection\\Exceptions\\InvalidMethodException</title>
<polygon fill="none" stroke="black" points="403.39,-68 238.39,-68 238.39,-32 403.39,-32 403.39,-68"/>
<text text-anchor="middle" x="320.89" y="-47.2" font-family="Courier,monospace" font-size="11.00">InvalidMethodException</text>
</g>
<!-- \\LazyCollection\\Exceptions\\InvalidMethodException&#45;&gt;Exception -->
<g id="edge4" class="edge">
<title>\\LazyCollection\\Exceptions\\InvalidMethodException&#45;&gt;Exception</title>
<path fill="none" stroke="black" d="M243.17,-68.06C209.11,-76.07 170.01,-85.27 139.9,-92.36"/>
<polygon fill="none" stroke="black" points="138.99,-88.98 130.05,-94.68 140.59,-95.79 138.99,-88.98"/>
</g>
<!-- \\LazyCollection\\Stream -->
<g id="node4" class="node">
<title>\\LazyCollection\\Stream</title>
<polygon fill="none" stroke="black" points="349.39,-248 292.39,-248 292.39,-212 349.39,-212 349.39,-248"/>
<text text-anchor="middle" x="320.89" y="-227.2" font-family="Courier,monospace" font-size="11.00">Stream</text>
</g>
<!-- IteratorAggregate -->
<g id="node5" class="node">
<title>IteratorAggregate</title>
<ellipse fill="none" stroke="black" cx="89.44" cy="-230" rx="73.39" ry="18"/>
<text text-anchor="middle" x="89.44" y="-226.3" font-family="Times New Roman,serif" font-size="14.00" fill="gray">IteratorAggregate</text>
</g>
<!-- \\LazyCollection\\Stream&#45;&gt;IteratorAggregate -->
<g id="edge1" class="edge">
<title>\\LazyCollection\\Stream&#45;&gt;IteratorAggregate</title>
<path fill="none" stroke="black" stroke-dasharray="1,5" d="M292.21,-230C262.81,-230 214.91,-230 173.16,-230"/>
<polygon fill="none" stroke="black" points="172.97,-226.5 162.97,-230 172.97,-233.5 172.97,-226.5"/>
</g>
</g>
</svg>
