<?xml version="1.0" encoding="UTF-8" standalone="no"?>
<!DOCTYPE svg PUBLIC "-//W3C//DTD SVG 1.1//EN"
 "http://www.w3.org/Graphics/SVG/1.1/DTD/svg11.dtd">
<!-- Generated by graphviz version 2.44.1 (20200629.0800)
 -->
<!-- Title: G Pages: 1 -->
<svg width="395pt" height="276pt"
 viewBox="0.00 0.00 394.89 276.00" xmlns="http://www.w3.org/2000/svg" xmlns:xlink="http://www.w3.org/1999/xlink">
<g id="graph0" class="graph" transform="scale(1 1) rotate(0) translate(4 272)">
<title>G</title>
<polygon fill="white" stroke="transparent" points="-4,4 -4,-272 390.89,-272 390.89,4 -4,4"/>
<g id="clust1" class="cluster">
<title>cluster_Global</title>
<path fill="none" stroke="gray" d="M20,-8C20,-8 366.89,-8 366.89,-8 372.89,-8 378.89,-14 378.89,-20 378.89,-20 378.89,-248 378.89,-248 378.89,-254 372.89,-260 366.89,-260 366.89,-260 20,-260 20,-260 14,-260 8,-254 8,-248 8,-248 8,-20 8,-20 8,-14 14,-8 20,-8"/>
<text text-anchor="middle" x="193.45" y="-247.2" font-family="Times New Roman,serif" font-size="11.00" fill="gray">Global</text>
</g>
<g id="clust2" class="cluster">
<title>cluster_\LazyCollection</title>
<path fill="none" stroke="gray" d="M178.89,-16C178.89,-16 358.89,-16 358.89,-16 364.89,-16 370.89,-22 370.89,-28 370.89,-28 370.89,-220 370.89,-220 370.89,-226 364.89,-232 358.89,-232 358.89,-232 178.89,-232 178.89,-232 172.89,-232 166.89,-226 166.89,-220 166.89,-220 166.89,-28 166.89,-28 166.89,-22 172.89,-16 178.89,-16"/>
<text text-anchor="middle" x="268.89" y="-219.2" font-family="Times New Roman,serif" font-size="11.00" fill="gray">LazyCollection</text>
</g>
<g id="clust3" class="cluster">
<title>cluster_\LazyCollection\Exceptions</title>
<path fill="none" stroke="gray" d="M186.89,-24C186.89,-24 350.89,-24 350.89,-24 356.89,-24 362.89,-30 362.89,-36 362.89,-36 362.89,-192 362.89,-192 362.89,-198 356.89,-204 350.89,-204 350.89,-204 186.89,-204 186.89,-204 180.89,-204 174.89,-198 174.89,-192 174.89,-192 174.89,-36 174.89,-36 174.89,-30 180.89,-24 186.89,-24"/>
<text text-anchor="middle" x="268.89" y="-191.2" font-family="Times New Roman,serif" font-size="11.00" fill="gray">Exceptions</text>
</g>
<!-- \\LazyCollection\\Exceptions\\InvalidFactoryException -->
<g id="node1" class="node">
<title>\\LazyCollection\\Exceptions\\InvalidFactoryException</title>
<polygon fill="none" stroke="black" points="354.89,-176 182.89,-176 182.89,-140 354.89,-140 354.89,-176"/>
<text text-anchor="middle" x="268.89" y="-155.2" font-family="Courier,monospace" font-size="11.00">InvalidFactoryException</text>
</g>
<!-- Exception -->
<g id="node4" class="node">
<title>Exception</title>
<ellipse fill="none" stroke="black" cx="63.45" cy="-104" rx="47.39" ry="18"/>
<text text-anchor="middle" x="63.45" y="-100.3" font-family="Times New Roman,serif" font-size="14.00" fill="gray">Exception</text>
</g>
<!-- \\LazyCollection\\Exceptions\\InvalidFactoryException&#45;&gt;Exception -->
<g id="edge1" class="edge">
<title>\\LazyCollection\\Exceptions\\InvalidFactoryException&#45;&gt;Exception</title>
<path fill="none" stroke="black" d="M199.86,-139.94C171.31,-132.36 138.76,-123.73 112.73,-116.82"/>
<polygon fill="none" stroke="black" points="113.3,-113.35 102.74,-114.16 111.51,-120.11 113.3,-113.35"/>
</g>
<!-- \\LazyCollection\\Exceptions\\NotFoundException -->
<g id="node2" class="node">
<title>\\LazyCollection\\Exceptions\\NotFoundException</title>
<polygon fill="none" stroke="black" points="334.39,-122 203.39,-122 203.39,-86 334.39,-86 334.39,-122"/>
<text text-anchor="middle" x="268.89" y="-101.2" font-family="Courier,monospace" font-size="11.00">NotFoundException</text>
</g>
<!-- \\LazyCollection\\Exceptions\\NotFoundException&#45;&gt;Exception -->
<g id="edge2" class="edge">
<title>\\LazyCollection\\Exceptions\\NotFoundException&#45;&gt;Exception</title>
<path fill="none" stroke="black" d="M203.24,-104C176.96,-104 146.85,-104 121.41,-104"/>
<polygon fill="none" stroke="black" points="121.18,-100.5 111.18,-104 121.18,-107.5 121.18,-100.5"/>
</g>
<!-- \\LazyCollection\\Exceptions\\InvalidMethodException -->
<g id="node3" class="node">
<title>\\LazyCollection\\Exceptions\\InvalidMethodException</title>
<polygon fill="none" stroke="black" points="351.39,-68 186.39,-68 186.39,-32 351.39,-32 351.39,-68"/>
<text text-anchor="middle" x="268.89" y="-47.2" font-family="Courier,monospace" font-size="11.00">InvalidMethodException</text>
</g>
<!-- \\LazyCollection\\Exceptions\\InvalidMethodException&#45;&gt;Exception -->
<g id="edge3" class="edge">
<title>\\LazyCollection\\Exceptions\\InvalidMethodException&#45;&gt;Exception</title>
<path fill="none" stroke="black" d="M199.86,-68.06C171.31,-75.64 138.76,-84.27 112.73,-91.18"/>
<polygon fill="none" stroke="black" points="111.51,-87.89 102.74,-93.84 113.3,-94.65 111.51,-87.89"/>
</g>
</g>
</svg>
